<mxfile host="app.diagrams.net" agent="Mozilla/5.0 (Macintosh; Intel Mac OS X 10_15_7) AppleWebKit/537.36 (KHTML, like Gecko) Chrome/136.0.0.0 Safari/537.36" version="27.0.6">
  <diagram id="yPxyJZ8AM_hMuL3Unpa9" name="complex gitflow">
    <mxGraphModel dx="1376" dy="1110" grid="1" gridSize="10" guides="1" tooltips="1" connect="1" arrows="1" fold="1" page="1" pageScale="1" pageWidth="1100" pageHeight="850" background="none" math="0" shadow="0">
      <root>
        <mxCell id="0" />
        <mxCell id="1" parent="0" />
        <mxCell id="qZM-FivN6d_vVc7TQJP9-59" value="" style="rounded=1;whiteSpace=wrap;html=1;" parent="1" vertex="1">
          <mxGeometry x="108.88" y="90" width="1261.12" height="660" as="geometry" />
        </mxCell>
        <mxCell id="qZM-FivN6d_vVc7TQJP9-30" value="" style="rounded=0;whiteSpace=wrap;html=1;" parent="1" vertex="1">
          <mxGeometry x="850" y="220" width="475" height="440" as="geometry" />
        </mxCell>
        <mxCell id="fSnZ5vnYTslC5NarKmr_-8" value="&lt;div style=&quot;text-align: center;&quot;&gt;&lt;span style=&quot;background-color: transparent; color: light-dark(rgb(0, 0, 0), rgb(237, 237, 237));&quot;&gt;&lt;font style=&quot;font-size: 14px;&quot;&gt;Notion Integration&lt;/font&gt;&lt;/span&gt;&lt;/div&gt;" style="text;html=1;strokeColor=none;fillColor=none;align=left;verticalAlign=middle;whiteSpace=wrap;overflow=hidden;fontSize=11;fontStyle=0;fontColor=#000000;" parent="1" vertex="1">
          <mxGeometry x="1027.5" y="220" width="120" height="38" as="geometry" />
        </mxCell>
        <UserObject label="COMPONENTES DO MVP" link="https://nvie.com/posts/a-successful-git-branching-model/" id="9hBKPDzoitwpIBdzFDQ7-2">
          <mxCell style="text;whiteSpace=wrap;html=1;fontStyle=1;fontSize=22;align=center;" parent="1" vertex="1">
            <mxGeometry x="535" y="100" width="427.75" height="20" as="geometry" />
          </mxCell>
        </UserObject>
        <mxCell id="qZM-FivN6d_vVc7TQJP9-42" value="" style="edgeStyle=orthogonalEdgeStyle;rounded=0;orthogonalLoop=1;jettySize=auto;html=1;" parent="1" source="qZM-FivN6d_vVc7TQJP9-3" target="qZM-FivN6d_vVc7TQJP9-36" edge="1">
          <mxGeometry relative="1" as="geometry" />
        </mxCell>
        <mxCell id="qZM-FivN6d_vVc7TQJP9-3" value="Notion Page" style="rounded=1;whiteSpace=wrap;html=1;" parent="1" vertex="1">
          <mxGeometry x="987.5" y="408" width="200" height="70" as="geometry" />
        </mxCell>
        <mxCell id="qZM-FivN6d_vVc7TQJP9-13" value="Front end Container" style="swimlane;whiteSpace=wrap;html=1;" parent="1" vertex="1">
          <mxGeometry x="160" y="220" width="490" height="436" as="geometry" />
        </mxCell>
        <mxCell id="qZM-FivN6d_vVc7TQJP9-20" value="INTERFACE DO USUARIO" style="rounded=1;whiteSpace=wrap;html=1;" parent="qZM-FivN6d_vVc7TQJP9-13" vertex="1">
          <mxGeometry x="143.5" y="170" width="210" height="70" as="geometry" />
        </mxCell>
        <mxCell id="qZM-FivN6d_vVc7TQJP9-22" value="NGINX" style="rounded=1;whiteSpace=wrap;html=1;" parent="qZM-FivN6d_vVc7TQJP9-13" vertex="1">
          <mxGeometry x="140" y="310" width="210" height="70" as="geometry" />
        </mxCell>
        <mxCell id="qZM-FivN6d_vVc7TQJP9-21" value="&lt;ul&gt;&lt;li&gt;REACT&amp;nbsp;&lt;/li&gt;&lt;li&gt;CSS&lt;/li&gt;&lt;li&gt;JAVASCRIPT&lt;/li&gt;&lt;/ul&gt;" style="text;html=1;strokeColor=none;fillColor=none;align=left;verticalAlign=middle;whiteSpace=wrap;overflow=hidden;" parent="qZM-FivN6d_vVc7TQJP9-13" vertex="1">
          <mxGeometry x="178.5" y="53" width="133" height="80" as="geometry" />
        </mxCell>
        <mxCell id="qZM-FivN6d_vVc7TQJP9-23" value="" style="shape=partialRectangle;whiteSpace=wrap;html=1;left=0;right=0;fillColor=none;" parent="qZM-FivN6d_vVc7TQJP9-13" vertex="1">
          <mxGeometry x="180" y="53" width="137" height="80" as="geometry" />
        </mxCell>
        <mxCell id="qZM-FivN6d_vVc7TQJP9-34" value="NOTION API" style="text;html=1;strokeColor=none;fillColor=none;align=center;verticalAlign=middle;whiteSpace=wrap;overflow=hidden;" parent="1" vertex="1">
          <mxGeometry x="708.88" y="393.25" width="80" height="30" as="geometry" />
        </mxCell>
        <mxCell id="qZM-FivN6d_vVc7TQJP9-35" value="" style="shape=flexArrow;endArrow=classic;startArrow=classic;html=1;rounded=0;" parent="1" edge="1">
          <mxGeometry width="100" height="100" relative="1" as="geometry">
            <mxPoint x="708.88" y="445.75" as="sourcePoint" />
            <mxPoint x="788.88" y="445.75" as="targetPoint" />
          </mxGeometry>
        </mxCell>
        <mxCell id="qZM-FivN6d_vVc7TQJP9-36" value="DB" style="shape=cylinder3;whiteSpace=wrap;html=1;boundedLbl=1;backgroundOutline=1;size=15;" parent="1" vertex="1">
          <mxGeometry x="1057.5" y="530" width="60" height="80" as="geometry" />
        </mxCell>
        <mxCell id="qZM-FivN6d_vVc7TQJP9-43" value="&lt;ul&gt;&lt;li&gt;&lt;span style=&quot;text-align: center; background-color: transparent; color: light-dark(rgb(0, 0, 0), rgb(237, 237, 237));&quot;&gt;DATABASE ID&lt;/span&gt;&lt;/li&gt;&lt;li&gt;&lt;span style=&quot;text-align: center; background-color: transparent; color: light-dark(rgb(0, 0, 0), rgb(237, 237, 237));&quot;&gt;TOKEN&lt;/span&gt;&lt;/li&gt;&lt;li&gt;&lt;span style=&quot;text-align: center; background-color: transparent; color: light-dark(rgb(0, 0, 0), rgb(237, 237, 237));&quot;&gt;ACCESS URL&lt;/span&gt;&lt;/li&gt;&lt;/ul&gt;" style="text;html=1;strokeColor=none;fillColor=none;align=left;verticalAlign=middle;whiteSpace=wrap;overflow=hidden;fontSize=12;fontStyle=0;fontColor=#000000;" parent="1" vertex="1">
          <mxGeometry x="1155" y="270" width="144.5" height="81" as="geometry" />
        </mxCell>
        <mxCell id="qZM-FivN6d_vVc7TQJP9-45" value="" style="shape=partialRectangle;whiteSpace=wrap;html=1;left=0;right=0;fillColor=none;align=left;" parent="1" vertex="1">
          <mxGeometry x="1175" y="271" width="137" height="80" as="geometry" />
        </mxCell>
        <mxCell id="qZM-FivN6d_vVc7TQJP9-51" value="&lt;a href=&quot;https://www.notion.so/1ce16f12775a80da8366cacacaa3d3da?v=1ce16f12775a807e846d000c874669ac&amp;amp;pvs=4&quot;&gt;https://www.notion.so/1ce16f12775a80da8366cacacaa3d3da?v=1ce16f12775a807e846d000c874669ac&amp;amp;pvs=4&lt;/a&gt;" style="text;strokeColor=none;fillColor=none;align=left;verticalAlign=middle;spacingLeft=4;spacingRight=4;overflow=hidden;points=[[0,0.5],[1,0.5]];portConstraint=eastwest;rotatable=0;whiteSpace=wrap;html=1;" parent="1" vertex="1">
          <mxGeometry x="442.75" y="700" width="630" height="30" as="geometry" />
        </mxCell>
        <mxCell id="qZM-FivN6d_vVc7TQJP9-52" value="Linki para a pÃ¡gina de Notion" style="text;html=1;align=center;verticalAlign=middle;whiteSpace=wrap;rounded=0;" parent="1" vertex="1">
          <mxGeometry x="667.75" y="670" width="180" height="30" as="geometry" />
        </mxCell>
        <mxCell id="qZM-FivN6d_vVc7TQJP9-53" value="&lt;div style=&quot;&quot;&gt;&lt;span style=&quot;font-size: 14px;&quot;&gt;INTERNET&lt;/span&gt;&lt;/div&gt;" style="text;html=1;strokeColor=none;fillColor=none;align=center;verticalAlign=middle;whiteSpace=wrap;overflow=hidden;fontSize=11;fontStyle=0;fontColor=#000000;" parent="1" vertex="1">
          <mxGeometry x="1040" y="170" width="120" height="38" as="geometry" />
        </mxCell>
        <mxCell id="qZM-FivN6d_vVc7TQJP9-54" value="&lt;div style=&quot;&quot;&gt;&lt;span style=&quot;background-color: transparent; color: light-dark(rgb(0, 0, 0), rgb(237, 237, 237));&quot;&gt;&lt;font style=&quot;font-size: 14px;&quot;&gt;SERVER&lt;br&gt;(Local ou Nuvem)&lt;/font&gt;&lt;/span&gt;&lt;/div&gt;" style="text;html=1;strokeColor=none;fillColor=none;align=center;verticalAlign=middle;whiteSpace=wrap;overflow=hidden;fontSize=11;fontStyle=0;fontColor=#000000;" parent="1" vertex="1">
          <mxGeometry x="345" y="170" width="120" height="38" as="geometry" />
        </mxCell>
      </root>
    </mxGraphModel>
  </diagram>
</mxfile>
